<svg width="399" height="99" viewBox="0 0 399 99" fill="none" xmlns="http://www.w3.org/2000/svg">
<g clip-path="url(#clip0_5_6)">
<path d="M90 0H9C4.02944 0 0 4.02944 0 9V89.1C0 94.0706 4.02944 98.1 9 98.1H90C94.9706 98.1 99 94.0706 99 89.1V9C99 4.02944 94.9706 0 90 0Z" fill="white"/>
<path d="M84.1603 42.1354C84.7968 44.8271 85.0212 47.5435 84.9984 50.2104C84.9322 55.5567 83.6676 60.7283 81.4013 65.4441C80.2796 67.8077 78.8275 70.0276 77.1914 72.1035C75.5326 74.1722 73.5734 76.0287 71.4447 77.666C69.2745 79.2804 66.9367 80.5647 64.5327 81.5902C62.11 82.5599 59.6243 83.2543 57.1137 83.6734C54.5979 84.0439 52.0687 84.1888 49.554 84.0274C47.0413 83.8339 44.5452 83.4376 42.1186 82.6914C37.2858 81.2426 32.6495 78.5426 29.1144 74.8295C27.3674 72.9884 25.8276 70.9881 24.6344 68.8304C23.4193 66.6871 22.4331 64.4404 21.7708 62.1068C21.0795 59.7856 20.6417 57.3961 20.5237 54.9765C20.4171 53.7749 20.4854 52.5528 20.5113 51.3461C20.5764 50.72 20.6303 50.0949 20.7027 49.4718C19.9141 49.2669 19.1711 49.0124 18.5004 48.6906C17.2493 48.1058 16.204 47.249 15.6142 46.3135C15.0326 45.3965 14.837 44.3151 15.1444 43.2079C15.3701 42.3821 15.6484 41.637 15.9155 40.8556L16.3336 39.7037L16.8054 38.6492L17.7906 36.5733L18.8835 34.6806L19.4423 33.7451L20.0384 32.8779L21.2502 31.1641C22.1081 30.1034 22.9485 29.0137 23.8716 28.0429C24.7895 27.0639 25.7115 26.0932 26.7134 25.2166C27.6769 24.3017 28.7262 23.4686 29.7808 22.6501C30.825 21.8243 31.9852 21.0875 33.107 20.3383C34.3303 19.6449 35.448 18.9164 36.7892 18.3181C39.2967 17.0453 42.2575 16.0444 45.5008 15.4236C46.3546 15.2942 47.2105 15.1825 48.0653 15.0894C48.9057 15.0076 49.6167 15.0273 50.397 15.0076C51.1639 14.9828 51.9183 15.0211 52.6697 15.0853C53.4189 15.1546 54.1826 15.1764 54.9112 15.3109C60.8379 16.1523 66.1784 18.5025 70.6333 21.779C72.8852 23.3975 74.8867 25.3101 76.6893 27.389C78.5014 29.4598 80.0412 31.7873 81.3171 34.2708C82.6159 36.7442 83.5601 39.4571 84.1603 42.1354ZM63.5596 57.586C64.3306 55.3517 64.6278 52.9127 64.3752 50.666C64.2448 49.5484 64.0388 48.4627 63.6559 47.4952C63.2958 46.5069 62.8788 45.6407 62.2859 44.8211C61.1682 43.158 59.5248 41.6771 57.7232 40.6837C55.9257 39.6674 53.9811 39.1862 52.3563 39.1997C52.1483 39.1687 51.9557 39.2359 51.7591 39.2349C51.5625 39.239 51.369 39.2503 51.1879 39.3031C51.0223 39.3476 50.7791 39.3476 50.6798 39.3993C50.598 39.4572 50.5173 39.4954 50.4335 39.5161C49.9926 39.7572 49.3199 39.987 48.5147 40.5779C46.9231 41.5714 45.1566 43.341 43.8608 45.1211C42.5145 46.8897 41.8035 48.9222 41.7724 49.7666C41.8448 49.8722 41.4443 49.8536 40.6858 49.8463C39.9417 49.8235 38.9212 49.7479 37.6111 49.7769C36.4159 49.7863 35.0188 49.8587 33.5244 49.9373C33.484 50.5033 33.5047 51.0808 33.4892 51.6468C33.5699 52.336 33.5761 53.018 33.7261 53.7001C33.9311 55.063 34.3357 56.4043 34.8697 57.6709C35.9118 60.2167 37.5635 62.4583 39.4977 64.0561C41.407 65.6529 43.6807 66.6432 46.1818 67.1172C47.4247 67.3604 48.7203 67.3997 49.9954 67.3707C51.2786 67.3107 52.5421 67.0799 53.7591 66.7736C54.9678 66.4207 56.1072 65.9467 57.1628 65.392C58.1863 64.7876 59.1239 64.1201 59.9259 63.3656C60.7073 62.5698 61.4431 61.7232 62.0516 60.7423C62.6384 59.7488 63.187 58.7161 63.5596 57.586Z" fill="#111111"/>
<path d="M137.947 24C148.395 24 156.896 32.5007 156.896 42.9489V55.7804C156.896 66.2283 148.395 74.7293 137.947 74.7293C127.5 74.7293 119 66.2286 119 55.7804V42.9489C119 32.501 127.5 24 137.947 24ZM148.939 55.7796V42.9482C148.939 36.8876 144.008 31.9568 137.947 31.9568C131.887 31.9568 126.957 36.8874 126.957 42.9482V55.7796C126.957 61.8403 131.887 66.7711 137.947 66.7711C144.008 66.7711 148.939 61.8404 148.939 55.7796ZM184.683 56.0786L196.541 67.936C198.094 69.4897 198.094 72.0088 196.541 73.5625C195.764 74.3394 194.746 74.7278 193.727 74.7278C192.709 74.7278 191.691 74.3394 190.914 73.5625L179.056 61.7044L167.198 73.5625C166.421 74.3394 165.403 74.7278 164.384 74.7278C163.366 74.7278 162.348 74.3394 161.571 73.5625C160.017 72.0089 160.017 69.4898 161.571 67.936L173.429 56.0779L161.571 44.2197C160.017 42.666 160.017 40.1469 161.571 38.5932C163.125 37.0395 165.643 37.0395 167.198 38.5932L179.056 50.4513L190.914 38.5939C192.468 37.0402 194.987 37.0402 196.541 38.5939C198.094 40.1476 198.094 42.6667 196.541 44.2204L184.683 56.0786ZM239.089 56.7482C239.091 56.8193 239.088 56.8901 239.085 56.9592C239.083 57.0015 239.085 57.0432 239.082 57.086C239.08 57.1134 239.077 57.1402 239.075 57.1676L239.071 57.2168C238.324 67.0459 230.052 74.7269 220.18 74.7269C209.732 74.7269 201.231 66.2262 201.231 55.7779C201.231 53.5807 203.012 51.7994 205.209 51.7994C207.406 51.7994 209.188 53.5808 209.188 55.7779C209.188 61.8386 214.118 66.7694 220.179 66.7694C225.358 66.7694 229.766 63.1229 230.885 58.2107L217.365 44.6909C215.812 43.1372 215.812 40.6181 217.365 39.0643C218.919 37.5107 221.438 37.5107 222.992 39.0643L237.926 53.9981C237.956 54.0285 237.982 54.0608 238.01 54.0917C238.059 54.1439 238.108 54.1956 238.154 54.2503C238.197 54.3011 238.236 54.3528 238.276 54.4045C238.314 54.4548 238.352 54.505 238.387 54.5568C238.427 54.6144 238.465 54.6731 238.501 54.7323C238.532 54.7825 238.562 54.8333 238.591 54.885C238.625 54.9466 238.657 55.0083 238.687 55.0709C238.714 55.1251 238.74 55.1798 238.763 55.2355C238.79 55.2967 238.814 55.3578 238.837 55.4195C238.86 55.4806 238.881 55.5413 238.901 55.6034C238.92 55.6625 238.936 55.7212 238.952 55.7809C238.97 55.847 238.987 55.9137 239.001 55.9814C239.014 56.04 239.024 56.0987 239.034 56.1574C239.045 56.2255 239.055 56.2942 239.063 56.3633C239.07 56.4259 239.075 56.4886 239.079 56.5512C239.083 56.6164 239.088 56.6825 239.089 56.7482ZM201.27 41.9797C201.268 41.909 201.271 41.8378 201.274 41.7681C201.276 41.7259 201.274 41.6841 201.277 41.6414C201.279 41.614 201.282 41.5872 201.284 41.5598L201.288 41.5105C202.036 31.6815 210.307 24.0005 220.179 24.0005C230.627 24.0005 239.128 32.5011 239.128 42.9494C239.128 45.1467 237.347 46.928 235.15 46.928C232.953 46.928 231.171 45.1465 231.171 42.9494C231.171 36.8888 226.241 31.958 220.18 31.958C215.001 31.958 210.593 35.6044 209.474 40.5166L222.994 54.0365C224.547 55.5902 224.547 58.1093 222.994 59.663C222.217 60.4399 221.199 60.8282 220.18 60.8282C219.162 60.8282 218.144 60.4398 217.367 59.663L202.433 44.7292C202.403 44.6989 202.377 44.6665 202.349 44.6357C202.3 44.5835 202.251 44.5317 202.205 44.477C202.163 44.4263 202.123 44.3745 202.083 44.3228C202.045 44.2726 202.007 44.2223 201.972 44.1706C201.932 44.1129 201.895 44.0542 201.858 43.9951C201.827 43.9448 201.797 43.8941 201.768 43.8423C201.734 43.7807 201.702 43.7191 201.672 43.6564C201.645 43.6017 201.62 43.5475 201.596 43.4918C201.569 43.4312 201.545 43.3695 201.522 43.3079C201.499 43.2472 201.478 43.1866 201.458 43.1244C201.439 43.0658 201.422 43.0066 201.406 42.947C201.388 42.8803 201.372 42.8141 201.357 42.7465C201.345 42.6878 201.335 42.6291 201.325 42.5705C201.314 42.5023 201.303 42.4337 201.295 42.3645C201.288 42.3019 201.284 42.2393 201.28 42.1766C201.275 42.1114 201.271 42.0453 201.27 41.9797ZM275.958 37.4286C278.155 37.4286 279.936 39.21 279.936 41.4071V70.75C279.936 72.9473 278.155 74.7286 275.958 74.7286C273.952 74.7286 272.298 73.2435 272.023 71.3135C268.985 73.4614 265.282 74.7286 261.286 74.7286C251.002 74.7286 242.636 66.3627 242.636 56.0786C242.636 45.7944 251.002 37.4286 261.286 37.4286C265.282 37.4286 268.985 38.6958 272.023 40.8437C272.298 38.9135 273.952 37.4286 275.958 37.4286ZM261.286 66.7714C267.182 66.7714 271.979 61.9747 271.979 56.0786C271.979 50.1825 267.182 45.3857 261.286 45.3857C255.39 45.3857 250.594 50.1825 250.594 56.0786C250.594 61.9747 255.39 66.7714 261.286 66.7714ZM302.063 37.5282C312.32 37.5282 320.664 45.8723 320.664 56.1293C320.664 66.3863 312.32 74.7304 302.063 74.7304C298.086 74.7304 294.399 73.4717 291.372 71.337C291.088 73.2562 289.439 74.7304 287.441 74.7304C285.244 74.7304 283.463 72.9489 283.463 70.7518V27.9804C283.463 25.7831 285.244 24.0018 287.441 24.0018C289.639 24.0018 291.42 25.7833 291.42 27.9804V40.8883C294.438 38.7745 298.107 37.5282 302.063 37.5282ZM302.063 66.7714C307.932 66.7714 312.706 61.997 312.706 56.1286C312.706 50.2602 307.931 45.4857 302.063 45.4857C296.195 45.4857 291.42 50.2602 291.42 56.1286C291.42 61.997 296.195 66.7714 302.063 66.7714ZM342.744 37.5282C353 37.5282 361.345 45.8723 361.345 56.1293C361.345 66.3863 353.001 74.7304 342.744 74.7304C338.767 74.7304 335.08 73.4717 332.053 71.337C331.769 73.2562 330.12 74.7304 328.122 74.7304C325.925 74.7304 324.144 72.9489 324.144 70.7518V27.9804C324.144 25.7831 325.925 24.0018 328.122 24.0018C330.319 24.0018 332.101 25.7833 332.101 27.9804V40.8883C335.119 38.7745 338.788 37.5282 342.744 37.5282ZM342.744 66.7714C348.612 66.7714 353.387 61.997 353.387 56.1286C353.387 50.2602 348.612 45.4857 342.744 45.4857C336.875 45.4857 332.101 50.2602 332.101 56.1286C332.101 61.997 336.875 66.7714 342.744 66.7714ZM368.802 37.4286C370.999 37.4286 372.781 39.21 372.781 41.4071V70.75C372.781 72.9473 370.999 74.7286 368.802 74.7286C366.605 74.7286 364.823 72.9471 364.823 70.75V41.4071C364.823 39.2099 366.605 37.4286 368.802 37.4286ZM365.127 29.5004C365.027 29.2617 364.953 29.008 364.903 28.7544C364.848 28.5007 364.823 28.2371 364.823 27.9785C364.823 27.7199 364.848 27.4563 364.903 27.2026C364.953 26.949 365.027 26.6954 365.127 26.4566C365.226 26.2179 365.35 25.9842 365.495 25.7703C365.639 25.5515 365.803 25.3476 365.987 25.1636C366.171 24.9796 366.375 24.8155 366.594 24.6712C366.808 24.527 367.041 24.4027 367.28 24.3032C367.519 24.2038 367.772 24.1292 368.026 24.0794C369.319 23.8158 370.692 24.2436 371.617 25.1637C371.796 25.3477 371.965 25.5516 372.109 25.7704C372.254 25.9842 372.378 26.218 372.477 26.4567C372.577 26.6954 372.651 26.9491 372.701 27.2027C372.756 27.4564 372.781 27.72 372.781 27.9786C372.781 28.2372 372.756 28.5008 372.701 28.7544C372.651 29.0081 372.577 29.2617 372.477 29.5004C372.378 29.7391 372.254 29.9729 372.109 30.1868C371.965 30.4056 371.796 30.6095 371.617 30.7935C371.433 30.9775 371.229 31.1416 371.01 31.2858C370.796 31.4301 370.563 31.5544 370.324 31.6538C370.085 31.7533 369.832 31.8279 369.578 31.8776C369.324 31.9323 369.061 31.9572 368.802 31.9572C368.543 31.9572 368.28 31.9323 368.026 31.8776C367.773 31.8279 367.519 31.7533 367.28 31.6538C367.041 31.5544 366.808 31.43 366.594 31.2858C366.375 31.1416 366.171 30.9775 365.987 30.7935C365.803 30.6095 365.639 30.4056 365.495 30.1868C365.351 29.9729 365.226 29.7391 365.127 29.5004ZM395.021 37.4286C397.219 37.4286 399 39.21 399 41.4071C399 43.6043 397.218 45.3857 395.021 45.3857C389.125 45.3857 384.329 50.1825 384.329 56.0786V70.75C384.329 72.9473 382.547 74.7286 380.35 74.7286C378.153 74.7286 376.371 72.9471 376.371 70.75V41.4071C376.371 39.2099 378.153 37.4286 380.35 37.4286C382.356 37.4286 384.01 38.9141 384.284 40.8437C387.323 38.6957 391.026 37.4286 395.021 37.4286Z" fill="white"/>
</g>
<defs>
<clipPath id="clip0_5_6">
<rect width="399" height="98.1" fill="white"/>
</clipPath>
</defs>
</svg>
